<?xml version="1.0" encoding="UTF-8" standalone="no"?>
<!DOCTYPE svg PUBLIC "-//W3C//DTD SVG 1.1//EN" "http://www.w3.org/Graphics/SVG/1.1/DTD/svg11.dtd">
<svg version="1.1" xmlns="http://www.w3.org/2000/svg" xmlns:xlink="http://www.w3.org/1999/xlink" preserveAspectRatio="xMidYMid meet" viewBox="111.69867924528293 79.96632075471697 171.6981132075471 107.311320754717" width="171.7" height="107.31"><defs><path d="M202.23 80.14L204.54 80.36L206.82 80.67L209.07 81.06L211.29 81.53L213.47 82.08L215.62 82.7L217.73 83.41L219.81 84.19L221.84 85.04L223.83 85.96L225.78 86.95L227.68 88.01L229.53 89.14L231.33 90.32L233.08 91.58L234.78 92.89L236.42 94.26L238 95.69L239.52 97.17L240.99 98.71L242.39 100.3L243.61 101.8L245.03 101.99L246.83 102.3L248.61 102.68L250.36 103.12L252.08 103.62L253.77 104.18L255.43 104.8L257.05 105.48L258.64 106.22L260.2 107.02L261.72 107.86L263.2 108.76L264.64 109.72L266.04 110.72L267.4 111.77L268.71 112.86L269.98 114.01L271.2 115.19L272.37 116.42L273.49 117.7L274.56 119.01L275.57 120.36L276.53 121.75L277.44 123.17L278.28 124.63L279.07 126.13L279.8 127.65L280.46 129.21L281.06 130.79L281.6 132.4L282.07 134.04L282.47 135.71L282.8 137.39L283.06 139.1L283.24 140.83L283.36 142.58L283.4 144.35L283.36 146.12L283.24 147.87L283.06 149.6L282.8 151.31L282.47 153L282.07 154.66L281.6 156.3L281.06 157.91L280.46 159.5L279.8 161.05L279.07 162.58L278.28 164.07L277.44 165.53L276.53 166.96L275.57 168.35L274.56 169.7L273.49 171.01L272.37 172.28L271.2 173.51L269.98 174.7L268.71 175.84L267.4 176.94L266.04 177.99L264.64 178.99L263.2 179.94L261.72 180.84L260.2 181.69L258.64 182.48L257.05 183.22L255.43 183.9L253.77 184.52L252.08 185.09L250.36 185.59L248.61 186.03L246.83 186.4L245.03 186.72L243.21 186.96L241.36 187.14L239.5 187.24L237.61 187.28L235.72 187.24L233.86 187.14L232.01 186.96L230.19 186.72L228.39 186.4L226.61 186.03L224.87 185.59L223.15 185.09L221.46 184.52L219.8 183.9L218.74 183.46L217.73 183.84L215.62 184.54L213.47 185.17L211.29 185.72L209.07 186.19L206.82 186.57L204.54 186.88L202.23 187.1L199.9 187.23L197.54 187.28L195.18 187.23L192.85 187.1L190.54 186.88L188.26 186.57L186.01 186.19L183.79 185.72L181.61 185.17L179.91 184.67L179.48 184.81L177.55 185.38L175.58 185.87L173.58 186.3L171.56 186.65L169.51 186.92L167.43 187.12L165.33 187.24L163.21 187.28L161.09 187.24L158.99 187.12L156.91 186.92L154.86 186.65L152.83 186.3L150.84 185.87L148.87 185.38L146.93 184.81L145.03 184.18L143.17 183.48L141.34 182.71L139.54 181.88L137.79 180.99L136.08 180.04L134.42 179.03L132.8 177.96L131.22 176.83L129.69 175.65L128.22 174.41L126.79 173.13L125.42 171.79L124.1 170.41L122.84 168.98L121.64 167.5L120.5 165.98L119.42 164.42L118.4 162.81L117.45 161.17L116.57 159.49L115.75 157.78L115 156.03L114.33 154.24L113.72 152.43L113.2 150.59L112.75 148.71L112.37 146.82L112.08 144.89L111.87 142.95L111.74 140.98L111.7 138.99L111.74 137L111.87 135.03L112.08 133.08L112.37 131.16L112.75 129.26L113.2 127.39L113.72 125.54L114.33 123.73L115 121.95L115.75 120.2L116.57 118.48L117.45 116.8L118.4 115.16L119.42 113.56L120.5 112L121.64 110.48L122.84 109L124.1 107.57L125.42 106.18L126.79 104.85L128.22 103.56L129.69 102.33L131.22 101.15L132.8 100.02L134.42 98.95L136.08 97.94L137.79 96.98L139.54 96.09L141.34 95.26L143.17 94.49L145.03 93.79L146.93 93.16L148.87 92.6L150.84 92.1L152.83 91.68L154.86 91.33L156.91 91.06L158.99 90.86L161.09 90.74L163.21 90.7L163.23 90.7L163.75 90.32L165.55 89.14L167.4 88.01L169.3 86.95L171.25 85.96L173.24 85.04L175.27 84.19L177.34 83.41L179.46 82.7L181.61 82.08L183.79 81.53L186.01 81.06L188.26 80.67L190.54 80.36L192.85 80.14L195.18 80.01L197.54 79.97L199.9 80.01L202.23 80.14Z" id="e41PYODcU"></path></defs><g><g><g><use xlink:href="#e41PYODcU" opacity="1" fill="#303030" fill-opacity="0.88"></use></g></g></g></svg>