<?xml version="1.0" encoding="UTF-8" standalone="no"?>
<!DOCTYPE svg PUBLIC "-//W3C//DTD SVG 1.1//EN" "http://www.w3.org/Graphics/SVG/1.1/DTD/svg11.dtd">
<svg version="1.1" xmlns="http://www.w3.org/2000/svg" xmlns:xlink="http://www.w3.org/1999/xlink" preserveAspectRatio="xMidYMid meet" viewBox="175.60754716981143 222.77358490566036 154.00037735849054 104.00000000000006" width="150" height="100"><defs><path d="M255.7 223.94L257.71 224.14L259.71 224.43L261.67 224.79L263.61 225.23L265.52 225.74L267.4 226.32L269.24 226.98L271.05 227.71L272.83 228.5L274.57 229.36L276.27 230.28L277.93 231.27L279.55 232.32L281.12 233.43L282.65 234.59L284.13 235.82L285.57 237.09L286.95 238.43L288.28 239.81L289.56 241.24L290.78 242.72L291.85 244.12L293.09 244.3L294.67 244.59L296.22 244.94L297.74 245.35L299.25 245.81L300.72 246.34L302.17 246.92L303.59 247.55L304.98 248.24L306.34 248.98L307.67 249.77L308.97 250.61L310.23 251.5L311.45 252.43L312.63 253.41L313.78 254.43L314.89 255.49L315.95 256.6L316.97 257.75L317.95 258.93L318.89 260.16L319.77 261.42L320.61 262.71L321.4 264.04L322.14 265.4L322.83 266.79L323.46 268.21L324.04 269.66L324.57 271.14L325.04 272.64L325.44 274.17L325.79 275.72L326.08 277.29L326.31 278.88L326.48 280.49L326.57 282.13L326.61 283.77L326.57 285.42L326.48 287.05L326.31 288.66L326.08 290.26L325.79 291.83L325.44 293.38L325.04 294.91L324.57 296.41L324.04 297.89L323.46 299.34L322.83 300.76L322.14 302.15L321.4 303.51L320.61 304.84L319.77 306.13L318.89 307.39L317.95 308.61L316.97 309.8L315.95 310.95L314.89 312.05L313.78 313.12L312.63 314.14L311.45 315.12L310.23 316.05L308.97 316.94L307.67 317.78L306.34 318.57L304.98 319.31L303.59 319.99L302.17 320.63L300.72 321.21L299.25 321.73L297.74 322.2L296.22 322.61L294.67 322.96L293.09 323.25L291.5 323.48L289.89 323.64L288.26 323.74L286.61 323.77L284.96 323.74L283.33 323.64L281.72 323.48L280.12 323.25L278.55 322.96L277 322.61L275.47 322.2L273.97 321.73L272.49 321.21L271.04 320.63L270.12 320.22L269.24 320.57L267.4 321.22L265.52 321.81L263.61 322.32L261.67 322.76L259.71 323.12L257.71 323.4L255.7 323.61L253.66 323.73L251.6 323.77L249.54 323.73L247.5 323.61L245.49 323.4L243.49 323.12L241.53 322.76L239.59 322.32L237.68 321.81L236.2 321.35L235.82 321.48L234.13 322L232.42 322.46L230.67 322.86L228.9 323.18L227.11 323.44L225.3 323.62L223.46 323.74L221.61 323.77L219.75 323.74L217.92 323.62L216.1 323.44L214.31 323.18L212.54 322.86L210.8 322.46L209.08 322L207.39 321.48L205.73 320.89L204.1 320.23L202.5 319.52L200.93 318.75L199.4 317.92L197.91 317.03L196.45 316.08L195.04 315.09L193.66 314.04L192.33 312.94L191.04 311.79L189.79 310.59L188.6 309.34L187.45 308.05L186.34 306.72L185.29 305.34L184.3 303.93L183.35 302.47L182.47 300.98L181.63 299.45L180.86 297.88L180.15 296.28L179.49 294.65L178.9 292.99L178.38 291.3L177.92 289.58L177.52 287.84L177.2 286.07L176.94 284.28L176.76 282.46L176.65 280.63L176.61 278.77L176.65 276.92L176.76 275.09L176.94 273.27L177.2 271.48L177.52 269.71L177.92 267.96L178.38 266.25L178.9 264.56L179.49 262.9L180.15 261.26L180.86 259.67L181.63 258.1L182.47 256.57L183.35 255.08L184.3 253.62L185.29 252.2L186.34 250.83L187.45 249.49L188.6 248.2L189.79 246.96L191.04 245.76L192.33 244.61L193.66 243.51L195.04 242.46L196.45 241.46L197.91 240.52L199.4 239.63L200.93 238.8L202.5 238.03L204.1 237.31L205.73 236.66L207.39 236.07L209.08 235.54L210.8 235.08L212.54 234.69L214.31 234.36L216.1 234.11L217.92 233.92L219.75 233.81L221.61 233.77L221.62 233.77L222.08 233.43L223.65 232.32L225.27 231.27L226.93 230.28L228.63 229.36L230.37 228.5L232.15 227.71L233.96 226.98L235.8 226.32L237.68 225.74L239.59 225.23L241.53 224.79L243.49 224.43L245.49 224.14L247.5 223.94L249.54 223.82L251.6 223.77L253.66 223.82L255.7 223.94Z" id="d9AxZSYrm"></path></defs><g><g><g><filter id="shadow8100410" x="167.61" y="214.77" width="169" height="119" filterUnits="userSpaceOnUse" primitiveUnits="userSpaceOnUse"><feFlood></feFlood><feComposite in2="SourceAlpha" operator="in"></feComposite><feGaussianBlur stdDeviation="1"></feGaussianBlur><feOffset dx="1" dy="1" result="afterOffset"></feOffset><feFlood flood-color="#d8d8d8" flood-opacity="1"></feFlood><feComposite in2="afterOffset" operator="in"></feComposite><feMorphology operator="dilate" radius="1"></feMorphology><feComposite in2="SourceAlpha" operator="out"></feComposite></filter><path d="M255.7 223.94L257.71 224.14L259.71 224.43L261.67 224.79L263.61 225.23L265.52 225.74L267.4 226.32L269.24 226.98L271.05 227.71L272.83 228.5L274.57 229.36L276.27 230.28L277.93 231.27L279.55 232.32L281.12 233.43L282.65 234.59L284.13 235.82L285.57 237.09L286.95 238.43L288.28 239.81L289.56 241.24L290.78 242.72L291.85 244.12L293.09 244.3L294.67 244.59L296.22 244.94L297.74 245.35L299.25 245.81L300.72 246.34L302.17 246.92L303.59 247.55L304.98 248.24L306.34 248.98L307.67 249.77L308.97 250.61L310.23 251.5L311.45 252.43L312.63 253.41L313.78 254.43L314.89 255.49L315.95 256.6L316.97 257.75L317.95 258.93L318.89 260.16L319.77 261.42L320.61 262.71L321.4 264.04L322.14 265.4L322.83 266.79L323.46 268.21L324.04 269.66L324.57 271.14L325.04 272.64L325.44 274.17L325.79 275.72L326.08 277.29L326.31 278.88L326.48 280.49L326.57 282.13L326.61 283.77L326.57 285.42L326.48 287.05L326.31 288.66L326.08 290.26L325.79 291.83L325.44 293.38L325.04 294.91L324.57 296.41L324.04 297.89L323.46 299.34L322.83 300.76L322.14 302.15L321.4 303.51L320.61 304.84L319.77 306.13L318.89 307.39L317.95 308.61L316.97 309.8L315.95 310.95L314.89 312.05L313.78 313.12L312.63 314.14L311.45 315.12L310.23 316.05L308.97 316.94L307.67 317.78L306.34 318.57L304.98 319.31L303.59 319.99L302.17 320.63L300.72 321.21L299.25 321.73L297.74 322.2L296.22 322.61L294.67 322.96L293.09 323.25L291.5 323.48L289.89 323.64L288.26 323.74L286.61 323.77L284.96 323.74L283.33 323.64L281.72 323.48L280.12 323.25L278.55 322.96L277 322.61L275.47 322.2L273.97 321.73L272.49 321.21L271.04 320.63L270.12 320.22L269.24 320.57L267.4 321.22L265.52 321.81L263.61 322.32L261.67 322.76L259.71 323.12L257.71 323.4L255.7 323.61L253.66 323.73L251.6 323.77L249.54 323.73L247.5 323.61L245.49 323.4L243.49 323.12L241.53 322.76L239.59 322.32L237.68 321.81L236.2 321.35L235.82 321.48L234.13 322L232.42 322.46L230.67 322.86L228.9 323.18L227.11 323.44L225.3 323.62L223.46 323.74L221.61 323.77L219.75 323.74L217.92 323.62L216.1 323.44L214.31 323.18L212.54 322.86L210.8 322.46L209.08 322L207.39 321.48L205.73 320.89L204.1 320.23L202.5 319.52L200.93 318.75L199.4 317.92L197.91 317.03L196.45 316.08L195.04 315.09L193.66 314.04L192.33 312.94L191.04 311.79L189.79 310.59L188.6 309.34L187.45 308.05L186.34 306.72L185.29 305.34L184.3 303.93L183.35 302.47L182.47 300.98L181.63 299.45L180.86 297.88L180.15 296.28L179.49 294.65L178.9 292.99L178.38 291.3L177.92 289.58L177.52 287.84L177.2 286.07L176.94 284.28L176.76 282.46L176.65 280.63L176.61 278.77L176.65 276.92L176.76 275.09L176.94 273.27L177.2 271.48L177.52 269.71L177.92 267.96L178.38 266.25L178.9 264.56L179.49 262.9L180.15 261.26L180.86 259.67L181.63 258.1L182.47 256.57L183.35 255.08L184.3 253.62L185.29 252.2L186.34 250.83L187.45 249.49L188.6 248.2L189.79 246.96L191.04 245.76L192.33 244.61L193.66 243.51L195.04 242.46L196.45 241.46L197.91 240.52L199.4 239.63L200.93 238.8L202.5 238.03L204.1 237.31L205.73 236.66L207.39 236.07L209.08 235.54L210.8 235.08L212.54 234.69L214.31 234.36L216.1 234.11L217.92 233.92L219.75 233.81L221.61 233.77L221.62 233.77L222.08 233.43L223.65 232.32L225.27 231.27L226.93 230.28L228.63 229.36L230.37 228.5L232.15 227.71L233.96 226.98L235.8 226.32L237.68 225.74L239.59 225.23L241.53 224.79L243.49 224.43L245.49 224.14L247.5 223.94L249.54 223.82L251.6 223.77L253.66 223.82L255.7 223.94Z" id="cHeFCUjOf" fill="white" fill-opacity="1" filter="url(#shadow8100410)"></path></g><use xlink:href="#d9AxZSYrm" opacity="1" fill="#ffffff" fill-opacity="1"></use></g></g></svg>