<?xml version="1.0" encoding="UTF-8" standalone="no"?>
<!DOCTYPE svg PUBLIC "-//W3C//DTD SVG 1.1//EN" "http://www.w3.org/Graphics/SVG/1.1/DTD/svg11.dtd">
<svg version="1.1" xmlns="http://www.w3.org/2000/svg" xmlns:xlink="http://www.w3.org/1999/xlink" preserveAspectRatio="xMidYMid meet" viewBox="332.83997361129445 449.8122660557343 272.00000000000034 117.18773394426637" width="264" height="109.19"><defs><path d="M600.84 475C581.97 470.25 570.17 467.28 565.45 466.09C551.49 462.58 537.39 459.82 523.22 457.82C503.87 455.08 484.39 453.75 464.92 453.81C421.58 453.96 378.33 461.05 336.84 475C336.84 475 336.84 475 336.84 475" id="c17m9ZGUvp"></path><path d="M600.84 516C581.97 511.25 570.17 508.28 565.45 507.09C551.49 503.58 537.39 500.82 523.22 498.82C503.87 496.08 484.39 494.75 464.92 494.81C421.58 494.96 378.33 502.05 336.84 516C336.84 516 336.84 516 336.84 516" id="bQlnqy7vE"></path><path d="M600.84 563C581.97 558.25 570.17 555.28 565.45 554.09C551.49 550.58 537.39 547.82 523.22 545.82C503.87 543.08 484.39 541.75 464.92 541.81C421.58 541.96 378.33 549.05 336.84 563C336.84 563 336.84 563 336.84 563" id="g3IWp9qXRh"></path></defs><g><g><g><use xlink:href="#c17m9ZGUvp" opacity="1" fill-opacity="0" stroke="#ffffff" stroke-width="8" stroke-opacity="0.66"></use></g></g><g><g><use xlink:href="#bQlnqy7vE" opacity="1" fill-opacity="0" stroke="#ffffff" stroke-width="8" stroke-opacity="0.66"></use></g></g><g><g><use xlink:href="#g3IWp9qXRh" opacity="1" fill-opacity="0" stroke="#ffffff" stroke-width="8" stroke-opacity="0.66"></use></g></g></g></svg>