<?xml version="1.0" encoding="UTF-8" standalone="no"?>
<!DOCTYPE svg PUBLIC "-//W3C//DTD SVG 1.1//EN" "http://www.w3.org/Graphics/SVG/1.1/DTD/svg11.dtd">
<svg version="1.1" xmlns="http://www.w3.org/2000/svg" xmlns:xlink="http://www.w3.org/1999/xlink" preserveAspectRatio="xMidYMid meet" viewBox="89.55660377358481 243.72641509433956 93.43396226415095 44.15094339622638" width="93.43" height="44.15"><defs><path d="M103.56 256.69C103.56 260.58 100.42 263.73 96.56 263.73C92.69 263.73 89.56 260.58 89.56 256.69C89.56 252.8 92.69 249.65 96.56 243.73C100.42 249.65 103.56 252.8 103.56 256.69Z" id="auGWtMQdw"></path><path d="M141.92 280.84C141.92 284.73 138.78 287.88 134.92 287.88C131.05 287.88 127.92 284.73 127.92 280.84C127.92 276.95 131.05 273.8 134.92 267.88C138.78 273.8 141.92 276.95 141.92 280.84Z" id="a1XdHpTEek"></path><path d="M182.99 256.69C182.99 260.58 179.86 263.73 175.99 263.73C172.12 263.73 168.99 260.58 168.99 256.69C168.99 252.8 172.12 249.65 175.99 243.73C179.86 249.65 182.99 252.8 182.99 256.69Z" id="anGVknZ5W"></path></defs><g><g><g><use xlink:href="#auGWtMQdw" opacity="1" fill="#ffffff" fill-opacity="0.7"></use></g><g><use xlink:href="#a1XdHpTEek" opacity="1" fill="#ffffff" fill-opacity="0.7"></use></g><g><use xlink:href="#anGVknZ5W" opacity="1" fill="#ffffff" fill-opacity="0.7"></use></g></g></g></svg>