<?xml version="1.0" encoding="UTF-8" standalone="no"?>
<!DOCTYPE svg PUBLIC "-//W3C//DTD SVG 1.1//EN" "http://www.w3.org/Graphics/SVG/1.1/DTD/svg11.dtd">
<svg version="1.1" xmlns="http://www.w3.org/2000/svg" xmlns:xlink="http://www.w3.org/1999/xlink" preserveAspectRatio="xMidYMid meet" viewBox="400.6613318495998 226.03773584905687 120.65633964598698 54.066037735848425" width="116.66" height="50.07"><defs><path d="M445.15 272.99L445.26 274.17L445.15 275.31L444.86 276.24L444.41 276.87L443.87 277.1L443.33 276.87L442.89 276.24L442.59 275.31L442.48 274.17L442.59 272.99L442.89 271.78L443.33 270.42L443.87 268.76L444.41 270.42L444.86 271.78L444.86 271.78L445.15 272.99ZM441.19 272.27L440.3 273.05L439.31 273.63L438.38 273.93L437.61 273.94L437.1 273.64L436.97 273.06L437.23 272.34L437.81 271.55L438.67 270.79L439.7 270.19L440.85 269.73L442.21 269.29L443.87 268.76L442.84 270.17L442 271.32L442 271.32L441.19 272.27ZM448.27 269.18L449.41 269.52L450.42 270.06L451.17 270.69L451.59 271.33L451.6 271.92L451.18 272.33L450.43 272.51L449.45 272.43L448.35 272.1L447.3 271.55L446.3 270.82L445.2 269.89L443.87 268.76L445.61 268.89L447.04 268.99L447.04 268.99L448.27 269.18ZM440.45 265.97L441.45 266.7L442.54 267.63L443.87 268.76L442.13 268.63L440.7 268.52L439.48 268.34L438.34 268L437.33 267.46L436.57 266.83L436.16 266.19L436.15 265.6L436.57 265.18L437.32 265.01L438.3 265.09L439.4 265.42L439.4 265.42L440.45 265.97ZM445.15 262.21L445.26 263.35L445.15 264.53L444.86 265.74L444.41 267.1L443.87 268.76L443.33 267.1L442.89 265.74L442.59 264.53L442.48 263.35L442.59 262.21L442.89 261.28L443.33 260.65L443.87 260.42L444.41 260.65L444.86 261.28L444.86 261.28L445.15 262.21ZM450.52 265.18L449.94 265.97L449.07 266.73L448.05 267.33L446.9 267.79L445.54 268.23L443.87 268.76L444.9 267.35L445.75 266.19L446.55 265.25L447.45 264.47L448.44 263.89L449.37 263.59L450.14 263.58L450.64 263.88L450.77 264.45L450.77 264.45L450.52 265.18ZM481.28 261.68L481.39 262.87L481.28 264.01L480.98 264.94L480.54 265.57L480 265.8L479.46 265.57L479.02 264.94L478.72 264.01L478.61 262.87L478.72 261.68L479.02 260.48L479.46 259.12L480 257.46L480.54 259.12L480.98 260.48L480.98 260.48L481.28 261.68ZM477.32 260.97L476.43 261.75L475.43 262.33L474.5 262.63L473.73 262.64L473.23 262.34L473.1 261.76L473.35 261.04L473.94 260.25L474.8 259.49L475.82 258.89L476.97 258.43L478.34 257.99L480 257.46L478.97 258.87L478.12 260.02L478.12 260.02L477.32 260.97ZM484.4 257.87L485.53 258.22L486.55 258.75L487.3 259.38L487.71 260.03L487.72 260.62L487.3 261.03L486.55 261.2L485.58 261.13L484.48 260.79L483.43 260.25L482.43 259.51L481.33 258.59L480 257.46L481.74 257.59L483.17 257.69L483.17 257.69L484.4 257.87ZM410.66 245.52L410.77 246.66L410.66 247.84L410.37 249.05L409.92 250.41L409.38 252.07L409.92 253.73L410.37 255.09L410.66 256.3L410.77 257.48L410.66 258.62L410.37 259.56L409.92 260.18L409.38 260.42L408.84 260.18L408.4 259.56L408.1 258.62L407.99 257.48L408.1 256.3L408.4 255.09L408.84 253.73L409.38 252.07L408.35 253.48L407.51 254.64L406.7 255.58L405.81 256.36L404.82 256.94L403.89 257.24L403.12 257.25L402.61 256.95L402.48 256.38L402.74 255.65L403.32 254.86L404.18 254.1L405.21 253.5L406.36 253.04L407.72 252.6L409.38 252.07L407.64 251.94L406.21 251.84L404.99 251.65L403.85 251.31L402.84 250.77L402.08 250.14L401.67 249.5L401.66 248.91L402.08 248.5L402.83 248.32L403.81 248.4L404.91 248.73L405.96 249.28L406.96 250.02L408.05 250.94L409.38 252.07L408.84 250.41L408.4 249.05L408.1 247.84L407.99 246.66L408.1 245.52L408.4 244.59L408.84 243.96L409.38 243.73L409.92 243.96L410.37 244.59L410.37 244.59L410.66 245.52ZM486.65 253.88L486.06 254.67L485.2 255.42L484.18 256.03L483.03 256.49L481.66 256.93L480 257.46L481.03 256.05L481.88 254.89L482.68 253.95L483.57 253.17L484.57 252.59L485.5 252.28L486.27 252.27L486.77 252.58L486.9 253.15L486.9 253.15L486.65 253.88ZM481.28 250.91L481.39 252.05L481.28 253.23L480.98 254.43L480.54 255.8L480 257.46L478.26 257.33L476.83 257.22L475.6 257.04L474.47 256.7L473.45 256.16L472.7 255.53L472.29 254.88L472.28 254.3L472.7 253.88L473.45 253.71L474.42 253.79L475.52 254.12L476.57 254.67L477.57 255.4L478.67 256.33L480 257.46L479.46 255.8L479.02 254.43L478.72 253.23L478.61 252.05L478.72 250.91L479.02 249.97L479.46 249.34L480 249.11L480.54 249.34L480.98 249.97L480.98 249.97L481.28 250.91ZM413.78 252.49L414.92 252.83L415.93 253.37L416.68 254L417.1 254.64L417.11 255.23L416.69 255.65L415.94 255.82L414.96 255.74L413.86 255.41L412.81 254.86L411.81 254.13L410.71 253.2L409.38 252.07L411.12 252.2L412.55 252.31L412.55 252.31L413.78 252.49ZM416.03 248.49L415.45 249.28L414.58 250.04L413.56 250.64L412.41 251.1L411.05 251.54L409.38 252.07L410.41 250.66L411.26 249.51L412.06 248.56L412.96 247.78L413.95 247.2L414.88 246.9L415.65 246.89L416.15 247.19L416.28 247.77L416.28 247.77L416.03 248.49ZM507.02 248.02L506.03 248.6L505.1 248.9L504.33 248.91L503.83 248.61L503.7 248.03L503.95 247.3L504.53 246.52L505.39 245.76L506.42 245.16L507.57 244.7L508.93 244.26L510.6 243.73L512.34 243.85L513.77 243.96L514.99 244.14L516.13 244.49L517.14 245.02L517.89 245.65L518.31 246.3L518.32 246.89L517.9 247.3L517.15 247.47L516.17 247.39L515.07 247.06L514.02 246.51L513.02 245.78L511.93 244.86L510.6 243.73L511.14 245.39L511.58 246.75L511.88 247.95L511.99 249.13L511.88 250.28L511.58 251.21L511.14 251.84L510.6 252.07L510.05 251.84L509.61 251.21L509.31 250.28L509.2 249.13L509.31 247.95L509.61 246.75L510.05 245.39L510.6 243.73L509.57 245.14L508.72 246.29L507.92 247.24L507.92 247.24L507.02 248.02ZM448.02 239.67L447.03 240.25L446.1 240.56L445.33 240.57L444.83 240.26L444.7 239.69L444.95 238.96L445.53 238.17L446.39 237.42L447.42 236.81L448.57 236.35L449.93 235.91L451.6 235.38L453.34 235.51L454.77 235.62L455.99 235.8L457.13 236.14L458.14 236.68L458.89 237.31L459.31 237.96L459.32 238.54L458.9 238.96L458.15 239.13L457.17 239.05L456.07 238.72L455.02 238.17L454.02 237.44L452.93 236.51L451.6 235.38L452.14 237.04L452.58 238.41L452.88 239.61L452.99 240.79L452.88 241.93L452.58 242.87L452.14 243.5L451.6 243.73L451.05 243.5L450.61 242.87L450.31 241.93L450.2 240.79L450.31 239.61L450.61 238.41L451.05 237.04L451.6 235.38L450.57 236.79L449.72 237.95L448.92 238.89L448.92 238.89L448.02 239.67ZM507.17 240.94L508.17 241.67L509.26 242.6L510.6 243.73L508.85 243.6L507.43 243.49L506.2 243.31L505.06 242.96L504.05 242.43L503.3 241.8L502.88 241.15L502.87 240.56L503.29 240.15L504.04 239.98L505.02 240.06L506.12 240.39L506.12 240.39L507.17 240.94ZM511.88 237.18L511.99 238.32L511.88 239.5L511.58 240.7L511.14 242.07L510.6 243.73L511.63 242.32L512.47 241.16L513.28 240.22L514.17 239.44L515.16 238.86L516.09 238.55L516.86 238.54L517.36 238.85L517.49 239.42L517.24 240.15L516.66 240.94L515.8 241.69L514.77 242.29L513.62 242.76L512.26 243.19L510.6 243.73L510.05 242.07L509.61 240.7L509.31 239.5L509.2 238.32L509.31 237.18L509.61 236.24L510.05 235.61L510.6 235.38L511.14 235.61L511.58 236.24L511.58 236.24L511.88 237.18ZM452.88 228.83L452.99 229.97L452.88 231.16L452.58 232.36L452.14 233.72L451.6 235.38L452.63 233.97L453.47 232.82L454.28 231.87L455.17 231.09L456.16 230.51L457.09 230.21L457.86 230.2L458.36 230.5L458.49 231.08L458.24 231.8L457.66 232.59L456.8 233.35L455.77 233.95L454.62 234.41L453.26 234.85L451.6 235.38L451.05 233.72L450.61 232.36L450.31 231.16L450.2 229.97L450.31 228.83L450.61 227.9L451.05 227.27L451.6 227.04L452.14 227.27L452.58 227.9L452.58 227.9L452.88 228.83ZM448.17 232.59L449.17 233.33L450.26 234.25L451.6 235.38L449.85 235.25L448.43 235.15L447.2 234.97L446.06 234.62L445.05 234.09L444.3 233.46L443.88 232.81L443.87 232.22L444.29 231.81L445.04 231.64L446.02 231.71L447.12 232.05L447.12 232.05L448.17 232.59Z" id="g1y8OHjq3p"></path></defs><g><g><use xlink:href="#g1y8OHjq3p" opacity="1" fill="#ffffff" fill-opacity="1"></use></g></g></svg>