<?xml version="1.0" encoding="UTF-8" standalone="no"?>
<!DOCTYPE svg PUBLIC "-//W3C//DTD SVG 1.1//EN" "http://www.w3.org/Graphics/SVG/1.1/DTD/svg11.dtd">
<svg version="1.1" xmlns="http://www.w3.org/2000/svg" xmlns:xlink="http://www.w3.org/1999/xlink" preserveAspectRatio="xMidYMid meet" viewBox="7.679811320754606 334.8526415094336 255.47169811320765 84.14773584905686" width="251.47" height="80.15"><defs><path d="M11.3 397.96L12.68 398.17L11.68 399.2L11.92 400.65L10.68 399.96L9.44 400.65L9.68 399.2L8.68 398.17L10.06 397.96L10.68 396.65L11.3 397.96Z" id="aibbEJQZg"></path><path d="M53.03 360.98L54.42 361.19L53.42 362.22L53.65 363.66L52.42 362.98L51.18 363.66L51.42 362.22L50.42 361.19L51.8 360.98L52.42 359.66L53.03 360.98Z" id="b6HJg97s1Y"></path><path d="M117.71 347.32L119.09 347.53L118.09 348.56L118.33 350L117.09 349.32L115.86 350L116.09 348.56L115.09 347.53L116.48 347.32L117.09 346L117.71 347.32Z" id="dkJavXNpj"></path><path d="M158.91 374.34L160.29 374.55L159.29 375.58L159.52 377.02L158.29 376.34L157.05 377.02L157.29 375.58L156.29 374.55L157.67 374.34L158.29 373.02L158.91 374.34Z" id="f1HPJHxJgV"></path><path d="M193.37 413.32L194.76 413.53L193.76 414.55L193.99 416L192.76 415.32L191.52 416L191.76 414.55L190.76 413.53L192.14 413.32L192.76 412L193.37 413.32Z" id="brvLZaR8B"></path><path d="M256.77 393.96L258.15 394.17L257.15 395.2L257.39 396.65L256.15 395.96L254.92 396.65L255.15 395.2L254.15 394.17L255.53 393.96L256.15 392.65L256.77 393.96Z" id="aHkF8rDDD"></path><path d="M258.77 337.17L260.15 337.38L259.15 338.41L259.39 339.85L258.15 339.17L256.92 339.85L257.15 338.41L256.15 337.38L257.53 337.17L258.15 335.85L258.77 337.17Z" id="aNHOEOmxE"></path></defs><g><g><g><filter id="shadow1915267" x="-0.32" y="387.65" width="23" height="23" filterUnits="userSpaceOnUse" primitiveUnits="userSpaceOnUse"><feFlood></feFlood><feComposite in2="SourceAlpha" operator="in"></feComposite><feGaussianBlur stdDeviation="1"></feGaussianBlur><feOffset dx="1" dy="1" result="afterOffset"></feOffset><feFlood flood-color="#ffffff" flood-opacity="0.5"></feFlood><feComposite in2="afterOffset" operator="in"></feComposite><feMorphology operator="dilate" radius="1"></feMorphology><feComposite in2="SourceAlpha" operator="out"></feComposite></filter><path d="M11.3 397.96L12.68 398.17L11.68 399.2L11.92 400.65L10.68 399.96L9.44 400.65L9.68 399.2L8.68 398.17L10.06 397.96L10.68 396.65L11.3 397.96Z" id="bitYFFxqq" fill="white" fill-opacity="1" filter="url(#shadow1915267)"></path></g><use xlink:href="#aibbEJQZg" opacity="1" fill="#ffd500" fill-opacity="1"></use></g><g><g><filter id="shadow5013796" x="41.42" y="350.66" width="23" height="23" filterUnits="userSpaceOnUse" primitiveUnits="userSpaceOnUse"><feFlood></feFlood><feComposite in2="SourceAlpha" operator="in"></feComposite><feGaussianBlur stdDeviation="1"></feGaussianBlur><feOffset dx="1" dy="1" result="afterOffset"></feOffset><feFlood flood-color="#ffffff" flood-opacity="0.5"></feFlood><feComposite in2="afterOffset" operator="in"></feComposite><feMorphology operator="dilate" radius="1"></feMorphology><feComposite in2="SourceAlpha" operator="out"></feComposite></filter><path d="M53.03 360.98L54.42 361.19L53.42 362.22L53.65 363.66L52.42 362.98L51.18 363.66L51.42 362.22L50.42 361.19L51.8 360.98L52.42 359.66L53.03 360.98Z" id="j4KOiWl2i" fill="white" fill-opacity="1" filter="url(#shadow5013796)"></path></g><use xlink:href="#b6HJg97s1Y" opacity="1" fill="#ffd500" fill-opacity="1"></use></g><g><g><filter id="shadow16124228" x="106.09" y="337" width="23" height="23" filterUnits="userSpaceOnUse" primitiveUnits="userSpaceOnUse"><feFlood></feFlood><feComposite in2="SourceAlpha" operator="in"></feComposite><feGaussianBlur stdDeviation="1"></feGaussianBlur><feOffset dx="1" dy="1" result="afterOffset"></feOffset><feFlood flood-color="#ffffff" flood-opacity="0.5"></feFlood><feComposite in2="afterOffset" operator="in"></feComposite><feMorphology operator="dilate" radius="1"></feMorphology><feComposite in2="SourceAlpha" operator="out"></feComposite></filter><path d="M117.71 347.32L119.09 347.53L118.09 348.56L118.33 350L117.09 349.32L115.86 350L116.09 348.56L115.09 347.53L116.48 347.32L117.09 346L117.71 347.32Z" id="eJupmJFz0" fill="white" fill-opacity="1" filter="url(#shadow16124228)"></path></g><use xlink:href="#dkJavXNpj" opacity="1" fill="#ffd500" fill-opacity="1"></use></g><g><g><filter id="shadow4753770" x="147.29" y="364.02" width="23" height="23" filterUnits="userSpaceOnUse" primitiveUnits="userSpaceOnUse"><feFlood></feFlood><feComposite in2="SourceAlpha" operator="in"></feComposite><feGaussianBlur stdDeviation="1"></feGaussianBlur><feOffset dx="1" dy="1" result="afterOffset"></feOffset><feFlood flood-color="#ffffff" flood-opacity="0.5"></feFlood><feComposite in2="afterOffset" operator="in"></feComposite><feMorphology operator="dilate" radius="1"></feMorphology><feComposite in2="SourceAlpha" operator="out"></feComposite></filter><path d="M158.91 374.34L160.29 374.55L159.29 375.58L159.52 377.02L158.29 376.34L157.05 377.02L157.29 375.58L156.29 374.55L157.67 374.34L158.29 373.02L158.91 374.34Z" id="cxrgisxMm" fill="white" fill-opacity="1" filter="url(#shadow4753770)"></path></g><use xlink:href="#f1HPJHxJgV" opacity="1" fill="#ffd500" fill-opacity="1"></use></g><g><g><filter id="shadow6238487" x="181.76" y="403" width="23" height="23" filterUnits="userSpaceOnUse" primitiveUnits="userSpaceOnUse"><feFlood></feFlood><feComposite in2="SourceAlpha" operator="in"></feComposite><feGaussianBlur stdDeviation="1"></feGaussianBlur><feOffset dx="1" dy="1" result="afterOffset"></feOffset><feFlood flood-color="#ffffff" flood-opacity="0.5"></feFlood><feComposite in2="afterOffset" operator="in"></feComposite><feMorphology operator="dilate" radius="1"></feMorphology><feComposite in2="SourceAlpha" operator="out"></feComposite></filter><path d="M193.37 413.32L194.76 413.53L193.76 414.55L193.99 416L192.76 415.32L191.52 416L191.76 414.55L190.76 413.53L192.14 413.32L192.76 412L193.37 413.32Z" id="ciTxuiQf0" fill="white" fill-opacity="1" filter="url(#shadow6238487)"></path></g><use xlink:href="#brvLZaR8B" opacity="1" fill="#ffd500" fill-opacity="1"></use></g><g><g><filter id="shadow10058246" x="245.15" y="383.65" width="23" height="23" filterUnits="userSpaceOnUse" primitiveUnits="userSpaceOnUse"><feFlood></feFlood><feComposite in2="SourceAlpha" operator="in"></feComposite><feGaussianBlur stdDeviation="1"></feGaussianBlur><feOffset dx="1" dy="1" result="afterOffset"></feOffset><feFlood flood-color="#ffffff" flood-opacity="0.5"></feFlood><feComposite in2="afterOffset" operator="in"></feComposite><feMorphology operator="dilate" radius="1"></feMorphology><feComposite in2="SourceAlpha" operator="out"></feComposite></filter><path d="M256.77 393.96L258.15 394.17L257.15 395.2L257.39 396.65L256.15 395.96L254.92 396.65L255.15 395.2L254.15 394.17L255.53 393.96L256.15 392.65L256.77 393.96Z" id="a1unvrWlzN" fill="white" fill-opacity="1" filter="url(#shadow10058246)"></path></g><use xlink:href="#aHkF8rDDD" opacity="1" fill="#ffd500" fill-opacity="1"></use></g><g><g><filter id="shadow5997645" x="247.15" y="326.85" width="23" height="23" filterUnits="userSpaceOnUse" primitiveUnits="userSpaceOnUse"><feFlood></feFlood><feComposite in2="SourceAlpha" operator="in"></feComposite><feGaussianBlur stdDeviation="1"></feGaussianBlur><feOffset dx="1" dy="1" result="afterOffset"></feOffset><feFlood flood-color="#ffffff" flood-opacity="0.5"></feFlood><feComposite in2="afterOffset" operator="in"></feComposite><feMorphology operator="dilate" radius="1"></feMorphology><feComposite in2="SourceAlpha" operator="out"></feComposite></filter><path d="M258.77 337.17L260.15 337.38L259.15 338.41L259.39 339.85L258.15 339.17L256.92 339.85L257.15 338.41L256.15 337.38L257.53 337.17L258.15 335.85L258.77 337.17Z" id="bPbppFjQD" fill="white" fill-opacity="1" filter="url(#shadow5997645)"></path></g><use xlink:href="#aNHOEOmxE" opacity="1" fill="#ffd500" fill-opacity="1"></use></g></g></svg>