<?xml version="1.0" encoding="UTF-8" standalone="no"?>
<!DOCTYPE svg PUBLIC "-//W3C//DTD SVG 1.1//EN" "http://www.w3.org/Graphics/SVG/1.1/DTD/svg11.dtd">
<svg version="1.1" xmlns="http://www.w3.org/2000/svg" xmlns:xlink="http://www.w3.org/1999/xlink" preserveAspectRatio="xMidYMid meet" viewBox="132.49999999999994 40.41377358490564 160.00132075471691 160.001320754717" width="160" height="160"><defs><path d="M250.5 120.41C250.5 142.48 232.58 160.41 210.5 160.41C188.42 160.41 170.5 142.48 170.5 120.41C170.5 98.33 188.42 80.41 210.5 80.41C232.58 80.41 250.5 98.33 250.5 120.41Z" id="c5NmKNSX8h"></path><path d="M208.5 40.41L212.5 40.41L212.5 70.41L208.5 70.41L208.5 40.41Z" id="fJWvkAb9P"></path><path d="M208.5 170.42L212.5 170.42L212.5 200.42L208.5 200.42L208.5 170.42Z" id="c3C8doUCG8"></path><path d="M292.5 118.41L292.5 122.41L262.5 122.41L262.5 118.41L292.5 118.41Z" id="a2iiV8dLQB"></path><path d="M162.5 118.41L162.5 122.41L132.5 122.41L132.5 118.41L162.5 118.41Z" id="a1995OKRW1"></path><path d="M266.24 61.02L269.07 63.85L247.86 85.06L245.03 82.23L266.24 61.02Z" id="hb9HGy7Gw"></path><path d="M174.32 152.94L177.14 155.77L155.93 176.98L153.1 174.16L174.32 152.94Z" id="a1g5A1tcKY"></path><path d="M270.48 175.57L267.66 178.4L246.44 157.18L249.27 154.36L270.48 175.57Z" id="e2tmpi6KP7"></path><path d="M178.56 83.64L175.73 86.47L154.52 65.26L157.35 62.43L178.56 83.64Z" id="bxyqPWVLl"></path></defs><g><g><g><g><filter id="shadow2754289" x="139.5" y="49.41" width="142" height="142" filterUnits="userSpaceOnUse" primitiveUnits="userSpaceOnUse"><feFlood></feFlood><feComposite in2="SourceAlpha" operator="in"></feComposite><feGaussianBlur stdDeviation="3.46"></feGaussianBlur><feOffset dx="0" dy="0" result="afterOffset"></feOffset><feFlood flood-color="#ffffff" flood-opacity="0.7"></feFlood><feComposite in2="afterOffset" operator="in"></feComposite><feMorphology operator="dilate" radius="2"></feMorphology><feComposite in2="SourceAlpha" operator="out"></feComposite></filter><path d="M250.5 120.41C250.5 142.48 232.58 160.41 210.5 160.41C188.42 160.41 170.5 142.48 170.5 120.41C170.5 98.33 188.42 80.41 210.5 80.41C232.58 80.41 250.5 98.33 250.5 120.41Z" id="hLfjuSYMh" fill="white" fill-opacity="1" filter="url(#shadow2754289)"></path></g><use xlink:href="#c5NmKNSX8h" opacity="1" fill="#ffd500" fill-opacity="1"></use></g><g><g><filter id="shadow6171708" x="177.5" y="9.41" width="66" height="92" filterUnits="userSpaceOnUse" primitiveUnits="userSpaceOnUse"><feFlood></feFlood><feComposite in2="SourceAlpha" operator="in"></feComposite><feGaussianBlur stdDeviation="3.46"></feGaussianBlur><feOffset dx="0" dy="0" result="afterOffset"></feOffset><feFlood flood-color="#ffffff" flood-opacity="0.7"></feFlood><feComposite in2="afterOffset" operator="in"></feComposite><feMorphology operator="dilate" radius="2"></feMorphology><feComposite in2="SourceAlpha" operator="out"></feComposite></filter><path d="M208.5 40.41L212.5 40.41L212.5 70.41L208.5 70.41L208.5 40.41Z" id="g6RLazSy9" fill="white" fill-opacity="1" filter="url(#shadow6171708)"></path></g><use xlink:href="#fJWvkAb9P" opacity="1" fill="#ffd500" fill-opacity="1"></use></g><g><g><filter id="shadow13473270" x="177.5" y="139.42" width="66" height="92" filterUnits="userSpaceOnUse" primitiveUnits="userSpaceOnUse"><feFlood></feFlood><feComposite in2="SourceAlpha" operator="in"></feComposite><feGaussianBlur stdDeviation="3.46"></feGaussianBlur><feOffset dx="0" dy="0" result="afterOffset"></feOffset><feFlood flood-color="#ffffff" flood-opacity="0.7"></feFlood><feComposite in2="afterOffset" operator="in"></feComposite><feMorphology operator="dilate" radius="2"></feMorphology><feComposite in2="SourceAlpha" operator="out"></feComposite></filter><path d="M208.5 170.42L212.5 170.42L212.5 200.42L208.5 200.42L208.5 170.42Z" id="aGuS4h9Ot" fill="white" fill-opacity="1" filter="url(#shadow13473270)"></path></g><use xlink:href="#c3C8doUCG8" opacity="1" fill="#ffd500" fill-opacity="1"></use></g><g><g><filter id="shadow10264631" x="231.5" y="87.41" width="92" height="66" filterUnits="userSpaceOnUse" primitiveUnits="userSpaceOnUse"><feFlood></feFlood><feComposite in2="SourceAlpha" operator="in"></feComposite><feGaussianBlur stdDeviation="3.46"></feGaussianBlur><feOffset dx="0" dy="0" result="afterOffset"></feOffset><feFlood flood-color="#ffffff" flood-opacity="0.7"></feFlood><feComposite in2="afterOffset" operator="in"></feComposite><feMorphology operator="dilate" radius="2"></feMorphology><feComposite in2="SourceAlpha" operator="out"></feComposite></filter><path d="M292.5 118.41L292.5 122.41L262.5 122.41L262.5 118.41L292.5 118.41Z" id="iKzhxjoE1" fill="white" fill-opacity="1" filter="url(#shadow10264631)"></path></g><use xlink:href="#a2iiV8dLQB" opacity="1" fill="#ffd500" fill-opacity="1"></use></g><g><g><filter id="shadow2270941" x="101.5" y="87.41" width="92" height="66" filterUnits="userSpaceOnUse" primitiveUnits="userSpaceOnUse"><feFlood></feFlood><feComposite in2="SourceAlpha" operator="in"></feComposite><feGaussianBlur stdDeviation="3.46"></feGaussianBlur><feOffset dx="0" dy="0" result="afterOffset"></feOffset><feFlood flood-color="#ffffff" flood-opacity="0.7"></feFlood><feComposite in2="afterOffset" operator="in"></feComposite><feMorphology operator="dilate" radius="2"></feMorphology><feComposite in2="SourceAlpha" operator="out"></feComposite></filter><path d="M162.5 118.41L162.5 122.41L132.5 122.41L132.5 118.41L162.5 118.41Z" id="gbvt9wCUZ" fill="white" fill-opacity="1" filter="url(#shadow2270941)"></path></g><use xlink:href="#a1995OKRW1" opacity="1" fill="#ffd500" fill-opacity="1"></use></g><g><g><filter id="shadow9136046" x="214.03" y="30.02" width="86.04" height="86.04" filterUnits="userSpaceOnUse" primitiveUnits="userSpaceOnUse"><feFlood></feFlood><feComposite in2="SourceAlpha" operator="in"></feComposite><feGaussianBlur stdDeviation="3.46"></feGaussianBlur><feOffset dx="0" dy="0" result="afterOffset"></feOffset><feFlood flood-color="#ffffff" flood-opacity="0.7"></feFlood><feComposite in2="afterOffset" operator="in"></feComposite><feMorphology operator="dilate" radius="2"></feMorphology><feComposite in2="SourceAlpha" operator="out"></feComposite></filter><path d="M266.24 61.02L269.07 63.85L247.86 85.06L245.03 82.23L266.24 61.02Z" id="b1YC8qAfIe" fill="white" fill-opacity="1" filter="url(#shadow9136046)"></path></g><use xlink:href="#hb9HGy7Gw" opacity="1" fill="#ffd500" fill-opacity="1"></use></g><g><g><filter id="shadow5893112" x="122.1" y="121.94" width="86.04" height="86.04" filterUnits="userSpaceOnUse" primitiveUnits="userSpaceOnUse"><feFlood></feFlood><feComposite in2="SourceAlpha" operator="in"></feComposite><feGaussianBlur stdDeviation="3.46"></feGaussianBlur><feOffset dx="0" dy="0" result="afterOffset"></feOffset><feFlood flood-color="#ffffff" flood-opacity="0.7"></feFlood><feComposite in2="afterOffset" operator="in"></feComposite><feMorphology operator="dilate" radius="2"></feMorphology><feComposite in2="SourceAlpha" operator="out"></feComposite></filter><path d="M174.32 152.94L177.14 155.77L155.93 176.98L153.1 174.16L174.32 152.94Z" id="a59b84Y78K" fill="white" fill-opacity="1" filter="url(#shadow5893112)"></path></g><use xlink:href="#a1g5A1tcKY" opacity="1" fill="#ffd500" fill-opacity="1"></use></g><g><g><filter id="shadow6027707" x="215.44" y="123.36" width="86.04" height="86.04" filterUnits="userSpaceOnUse" primitiveUnits="userSpaceOnUse"><feFlood></feFlood><feComposite in2="SourceAlpha" operator="in"></feComposite><feGaussianBlur stdDeviation="3.46"></feGaussianBlur><feOffset dx="0" dy="0" result="afterOffset"></feOffset><feFlood flood-color="#ffffff" flood-opacity="0.7"></feFlood><feComposite in2="afterOffset" operator="in"></feComposite><feMorphology operator="dilate" radius="2"></feMorphology><feComposite in2="SourceAlpha" operator="out"></feComposite></filter><path d="M270.48 175.57L267.66 178.4L246.44 157.18L249.27 154.36L270.48 175.57Z" id="b1RlDlejGi" fill="white" fill-opacity="1" filter="url(#shadow6027707)"></path></g><use xlink:href="#e2tmpi6KP7" opacity="1" fill="#ffd500" fill-opacity="1"></use></g><g><g><filter id="shadow7423179" x="123.52" y="31.43" width="86.04" height="86.04" filterUnits="userSpaceOnUse" primitiveUnits="userSpaceOnUse"><feFlood></feFlood><feComposite in2="SourceAlpha" operator="in"></feComposite><feGaussianBlur stdDeviation="3.46"></feGaussianBlur><feOffset dx="0" dy="0" result="afterOffset"></feOffset><feFlood flood-color="#ffffff" flood-opacity="0.7"></feFlood><feComposite in2="afterOffset" operator="in"></feComposite><feMorphology operator="dilate" radius="2"></feMorphology><feComposite in2="SourceAlpha" operator="out"></feComposite></filter><path d="M178.56 83.64L175.73 86.47L154.52 65.26L157.35 62.43L178.56 83.64Z" id="brxAUfsIc" fill="white" fill-opacity="1" filter="url(#shadow7423179)"></path></g><use xlink:href="#bxyqPWVLl" opacity="1" fill="#ffd500" fill-opacity="1"></use></g></g></g></svg>